<?xml version="1.0" encoding="utf-8"?>
<!-- Generator: Adobe Illustrator 27.4.1, SVG Export Plug-In . SVG Version: 6.00 Build 0)  -->
<svg version="1.1" id="Capa_1" xmlns="http://www.w3.org/2000/svg" xmlns:xlink="http://www.w3.org/1999/xlink" x="0px" y="0px"
	 viewBox="0 0 731.9 903.9" style="enable-background:new 0 0 731.9 903.9;" xml:space="preserve">
<style type="text/css">
	.st0{clip-path:url(#SVGID_00000060718351804582296410000017587031200777215904_);}
</style>
<g>
	<defs>
		<rect id="SVGID_1_" width="731.9" height="903.9"/>
	</defs>
	<clipPath id="SVGID_00000157998718662079322330000008225813793943454086_">
		<use xlink:href="#SVGID_1_"  style="overflow:visible;"/>
	</clipPath>
	<path style="clip-path:url(#SVGID_00000157998718662079322330000008225813793943454086_);" d="M525.5,578.6
		c-8.1-14.4-18.3-27.1-30.3-37.7c-11.9-10.6-28.1-23.2-48-37.5l-10.8-8c-3.2-2.5-6.9-5-10.9-7.4c-19.1-13.5-34.4-25.5-45.4-35.8
		c-10.8-10.1-16.1-20.1-15.8-29.9c0.5-14,7.1-25.2,19.5-33.3c12.6-8.2,26.5-12.1,41.3-11.6c11.7,0.4,23.2,2.7,34.2,6.9
		c10.9,4.2,19.1,10.1,24.4,17.5c4.2,5.1,8.3,11.7,12.1,19.5l0.3,0.6l4.7,0.2l-4.3-25.6l-0.5-3.9l-0.3-0.3c-0.4-0.4-1.1-1-1.9-1.6
		c-0.8-0.6-1.5-1-2.1-1.1c-2.9-2-7.1-4.3-12.7-6.8c-17.5-7.7-34.5-11.8-50.5-12.3c-15.2-0.5-29.9,2.2-43.4,8.1
		c-8.5,4.1-16.2,10.1-22.9,17.7c-6.8,7.8-10.5,18-10.9,30.3c-0.6,15.5,5.8,30.3,19.1,44c11.5,11.9,28.4,26.3,50.4,42.7
		c-14.7,2.9-29.1,4.4-42.8,4.4c-12.9,0-27.3-1.6-42.8-4.7c-23.8-5.1-45.5-15.2-64.4-30.1c-19-14.9-34.4-32.8-45.9-53.2
		c-14.2-24.7-21.4-54-21.4-86.9c0-36.1,9.4-69.1,27.9-97.9c18.5-28.8,45-47.5,78.8-55.7c6.9-1.6,14.5-2.3,22.6-2.3
		c21.4,0,42.7,6.9,63.2,20.6c7.2,5,15.3,14.9,24,29.4l0.3,0.6h5l-7.3-33.9l-0.3-0.3c-8.4-6.4-19.9-12-34-16.6
		c-14.2-4.6-30.3-6.9-48-6.9c-34.8,0-64.6,7.6-88.5,22.5c-23.9,14.9-42,35.4-53.6,60.9c-11.6,25.4-17.5,54.2-17.5,85.6
		c0,43.7,14,81,41.6,110.9c27.6,29.8,65.8,49.4,113.5,58.1c15.7,2.5,29.7,3.9,41.9,4.2c-2.7,0.8-5.3,1.6-7.8,2.5
		c-14.9,5.6-28.7,14-41.1,25c-12,11-21.5,24-28.2,38.5c-6.7,14.5-10.4,29.5-11,44.4c-0.6,15.7,1.9,31,7.3,45.6
		c5.5,14.5,13.7,27.7,24.4,39c23.4,25.2,55.2,38.6,94.3,39.9c1.5,0,3,0.1,4.5,0.1c15.4,0,30.6-2.6,45.3-7.9
		c16.1-5.8,30-14.3,41.1-25.3c24.8-24.7,38-52.8,39.1-83.4C542.1,619,536.8,598.3,525.5,578.6 M411.4,753.3
		c-15-0.5-29.7-3.1-43.7-7.9c-18.8-6.4-34.8-16.7-47.7-30.6c-10.5-11.2-18.6-23.9-23.9-38c-5.4-14.1-7.8-29-7.2-44.4
		c0.5-14.6,4.2-29.2,10.8-43.2c6.6-14.1,15.9-26.4,27.6-36.8c12.1-10.8,25.6-19,40-24.5c10.3-3.9,24.7-5.8,35.2-7.2l1.3-0.2
		c7.4-0.8,14.7-2,21.8-3.5l1.1,0.9c1,0.8,2.1,1.5,3.2,2.3c21,15.9,38.3,29.7,51.4,41c13,11.2,24,24.3,32.8,38.7
		c8.8,14.3,12.9,29.8,12.3,45.9c-0.6,15.4-4.2,30.5-10.8,44.7c-6.6,14.2-15.8,26.3-27.5,36c-10.4,8.9-22.5,15.8-35.8,20.6
		C438.9,751.5,425.2,753.7,411.4,753.3"/>
</g>
</svg>
